# xmcd
#
# Track frame offsets:
#	150
#	11867
#	23151
#	36277
#	46372
#	57212
#	69396
#	81987
#	91980
#	104023
#	115595
#	125300
#	135816
#	147314
#	161390
#	175067
#	185697
#	196127
#	207654
#	219791
#	231040
#	239296
#	249460
#	259030
#	267838
#	276583
#
# Disc length: 3815 seconds
#
# Revision: 0
# Processed by: cddbd v1.5.2PL0 Copyright (c) Steve Scherf et al.
# Submitted via: EasyCDDAExtractor 16.0.1.1
#
DISCID=710ee51a
DTITLE=Bonnie Owens - Queen Of The Coast cd1
DYEAR=1900
DGENRE=Country
TTITLE0=A Dear John Letter (& Fuzzy Owen)
TTITLE1=Wonderful Word (& Fuzzy Owen)
TTITLE2=I Traded My Heart For His Gold
TTITLE3=Take Me
TTITLE4=Just A Love For Someone To Steal
TTITLE5=No Tomorrow (& Fuzzy Owen)
TTITLE6=Father (The Kern Country Sweethearts)
TTITLE7=Please Don't Take Him From Me (The Kern Country Sweethearts)
TTITLE8=That Little Boy Of Mine
TTITLE9=Wait A Little Longer, Please Jesus
TTITLE10=Looking Back To See (& Fuzzy Owen)
TTITLE11=Just For The Children's Sake
TTITLE12=This Other
TTITLE13=Missing On A Mountain (& Tommy Dee)
TTITLE14=Why Don't Daddy Live Here Anymore
TTITLE15=Waggin' Tongues
TTITLE16=Stop The World (And Let Me Off)
TTITLE17=Don't Take Advantage Of Me
TTITLE18=Lie A Little
TTITLE19=I'll Try Again Tomorrow
TTITLE20=The Longer You Wait
TTITLE21=You Don't Have Far To Go
TTITLE22=Number One Heel
TTITLE23=Beggin' To You
TTITLE24=I Want To Be A Cowboy's Sweetheart
TTITLE25=Pins And Needles
EXTD=
EXTT0=
EXTT1=
EXTT2=
EXTT3=
EXTT4=
EXTT5=
EXTT6=
EXTT7=
EXTT8=
EXTT9=
EXTT10=
EXTT11=
EXTT12=
EXTT13=
EXTT14=
EXTT15=
EXTT16=
EXTT17=
EXTT18=
EXTT19=
EXTT20=
EXTT21=
EXTT22=
EXTT23=
EXTT24=
EXTT25=
PLAYORDER=
